<mxfile host="app.diagrams.net" modified="2020-10-17T18:43:49.499Z" agent="5.0 (Windows)" etag="9MC-ifVDnG0WiO5Wi9-e" version="13.8.0" type="github">
  <diagram id="e7LwDIP-vcQy6ShYuZ_r" name="Page-1">
    <mxGraphModel dx="868" dy="479" grid="1" gridSize="10" guides="1" tooltips="1" connect="1" arrows="1" fold="1" page="1" pageScale="1" pageWidth="850" pageHeight="1100" math="0" shadow="0">
      <root>
        <mxCell id="0" />
        <mxCell id="1" parent="0" />
        <mxCell id="kQn8n2zBx9t5nKiIXPxH-13" style="edgeStyle=orthogonalEdgeStyle;rounded=0;orthogonalLoop=1;jettySize=auto;html=1;" edge="1" parent="1" source="kQn8n2zBx9t5nKiIXPxH-1">
          <mxGeometry relative="1" as="geometry">
            <mxPoint x="385" y="120" as="targetPoint" />
          </mxGeometry>
        </mxCell>
        <mxCell id="kQn8n2zBx9t5nKiIXPxH-1" value="" style="ellipse;whiteSpace=wrap;html=1;aspect=fixed;fillColor=#000000;strokeColor=#FF0000;" vertex="1" parent="1">
          <mxGeometry x="370" y="70" width="30" height="30" as="geometry" />
        </mxCell>
        <mxCell id="kQn8n2zBx9t5nKiIXPxH-2" value="Start" style="text;html=1;strokeColor=none;fillColor=none;align=center;verticalAlign=middle;whiteSpace=wrap;rounded=0;" vertex="1" parent="1">
          <mxGeometry x="365" y="50" width="40" height="20" as="geometry" />
        </mxCell>
        <mxCell id="kQn8n2zBx9t5nKiIXPxH-3" value="&lt;div&gt;&lt;font style=&quot;font-size: 18px&quot;&gt;Build&lt;/font&gt;&lt;/div&gt;&lt;div&gt;&lt;font style=&quot;font-size: 18px&quot;&gt;Similarity&lt;/font&gt;&lt;/div&gt;&lt;div&gt;&lt;font style=&quot;font-size: 18px&quot;&gt;Matrix&lt;/font&gt;&lt;br&gt;&lt;/div&gt;" style="rounded=1;whiteSpace=wrap;html=1;strokeColor=#000000;fillColor=#FFFFFF;" vertex="1" parent="1">
          <mxGeometry x="305" y="120" width="160" height="80" as="geometry" />
        </mxCell>
        <mxCell id="kQn8n2zBx9t5nKiIXPxH-23" style="edgeStyle=orthogonalEdgeStyle;rounded=0;orthogonalLoop=1;jettySize=auto;html=1;entryX=0;entryY=0.5;entryDx=0;entryDy=0;" edge="1" parent="1" source="kQn8n2zBx9t5nKiIXPxH-4" target="kQn8n2zBx9t5nKiIXPxH-6">
          <mxGeometry relative="1" as="geometry" />
        </mxCell>
        <mxCell id="kQn8n2zBx9t5nKiIXPxH-4" value="&lt;div&gt;&lt;font style=&quot;font-size: 18px&quot;&gt;Context to&lt;/font&gt;&lt;/div&gt;&lt;div&gt;&lt;font style=&quot;font-size: 18px&quot;&gt;Query&lt;/font&gt;&lt;/div&gt;&lt;div&gt;&lt;font style=&quot;font-size: 18px&quot;&gt;Attention&lt;/font&gt;&lt;br&gt;&lt;/div&gt;" style="rounded=1;whiteSpace=wrap;html=1;strokeColor=#000000;fillColor=#FFFFFF;" vertex="1" parent="1">
          <mxGeometry x="120" y="270" width="150" height="70" as="geometry" />
        </mxCell>
        <mxCell id="kQn8n2zBx9t5nKiIXPxH-25" style="edgeStyle=orthogonalEdgeStyle;rounded=0;orthogonalLoop=1;jettySize=auto;html=1;entryX=1;entryY=0.5;entryDx=0;entryDy=0;" edge="1" parent="1" source="kQn8n2zBx9t5nKiIXPxH-5" target="kQn8n2zBx9t5nKiIXPxH-6">
          <mxGeometry relative="1" as="geometry" />
        </mxCell>
        <mxCell id="kQn8n2zBx9t5nKiIXPxH-5" value="&lt;div&gt;&lt;font style=&quot;font-size: 18px&quot;&gt;Query to&lt;/font&gt;&lt;/div&gt;&lt;div&gt;&lt;font style=&quot;font-size: 18px&quot;&gt;Context&lt;br&gt;&lt;/font&gt;&lt;/div&gt;&lt;div&gt;&lt;font style=&quot;font-size: 18px&quot;&gt;Attention&lt;/font&gt;&lt;br&gt;&lt;/div&gt;" style="rounded=1;whiteSpace=wrap;html=1;strokeColor=#000000;fillColor=#FFFFFF;" vertex="1" parent="1">
          <mxGeometry x="490" y="270" width="150" height="70" as="geometry" />
        </mxCell>
        <mxCell id="kQn8n2zBx9t5nKiIXPxH-26" style="edgeStyle=orthogonalEdgeStyle;rounded=0;orthogonalLoop=1;jettySize=auto;html=1;entryX=0.5;entryY=0;entryDx=0;entryDy=0;" edge="1" parent="1" source="kQn8n2zBx9t5nKiIXPxH-6" target="kQn8n2zBx9t5nKiIXPxH-7">
          <mxGeometry relative="1" as="geometry" />
        </mxCell>
        <mxCell id="kQn8n2zBx9t5nKiIXPxH-6" value="" style="ellipse;whiteSpace=wrap;html=1;aspect=fixed;strokeColor=#000000;fillColor=#FFFFFF;" vertex="1" parent="1">
          <mxGeometry x="370" y="350" width="30" height="30" as="geometry" />
        </mxCell>
        <mxCell id="kQn8n2zBx9t5nKiIXPxH-28" style="edgeStyle=orthogonalEdgeStyle;rounded=0;orthogonalLoop=1;jettySize=auto;html=1;entryX=0.5;entryY=0;entryDx=0;entryDy=0;" edge="1" parent="1" source="kQn8n2zBx9t5nKiIXPxH-7" target="kQn8n2zBx9t5nKiIXPxH-8">
          <mxGeometry relative="1" as="geometry" />
        </mxCell>
        <mxCell id="kQn8n2zBx9t5nKiIXPxH-7" value="&lt;font style=&quot;font-size: 18px&quot;&gt;MegaMerge&lt;/font&gt;" style="rounded=1;whiteSpace=wrap;html=1;strokeColor=#000000;fillColor=#FFFFFF;" vertex="1" parent="1">
          <mxGeometry x="325" y="420" width="120" height="60" as="geometry" />
        </mxCell>
        <mxCell id="kQn8n2zBx9t5nKiIXPxH-8" value="" style="ellipse;whiteSpace=wrap;html=1;aspect=fixed;fillColor=#000000;strokeColor=#FF0000;" vertex="1" parent="1">
          <mxGeometry x="370" y="520" width="30" height="30" as="geometry" />
        </mxCell>
        <mxCell id="kQn8n2zBx9t5nKiIXPxH-9" value="End" style="text;html=1;strokeColor=none;fillColor=none;align=center;verticalAlign=middle;whiteSpace=wrap;rounded=0;" vertex="1" parent="1">
          <mxGeometry x="365" y="550" width="40" height="20" as="geometry" />
        </mxCell>
        <mxCell id="kQn8n2zBx9t5nKiIXPxH-16" value="" style="endArrow=none;html=1;exitX=0.5;exitY=1;exitDx=0;exitDy=0;" edge="1" parent="1" source="kQn8n2zBx9t5nKiIXPxH-3">
          <mxGeometry width="50" height="50" relative="1" as="geometry">
            <mxPoint x="210" y="250" as="sourcePoint" />
            <mxPoint x="385" y="240" as="targetPoint" />
          </mxGeometry>
        </mxCell>
        <mxCell id="kQn8n2zBx9t5nKiIXPxH-17" value="" style="endArrow=none;html=1;" edge="1" parent="1">
          <mxGeometry width="50" height="50" relative="1" as="geometry">
            <mxPoint x="210" y="240" as="sourcePoint" />
            <mxPoint x="580" y="240" as="targetPoint" />
          </mxGeometry>
        </mxCell>
        <mxCell id="kQn8n2zBx9t5nKiIXPxH-19" value="" style="endArrow=classic;html=1;" edge="1" parent="1">
          <mxGeometry width="50" height="50" relative="1" as="geometry">
            <mxPoint x="210" y="240" as="sourcePoint" />
            <mxPoint x="211" y="267" as="targetPoint" />
          </mxGeometry>
        </mxCell>
        <mxCell id="kQn8n2zBx9t5nKiIXPxH-20" value="" style="endArrow=classic;html=1;" edge="1" parent="1">
          <mxGeometry width="50" height="50" relative="1" as="geometry">
            <mxPoint x="572" y="240" as="sourcePoint" />
            <mxPoint x="572" y="269" as="targetPoint" />
          </mxGeometry>
        </mxCell>
      </root>
    </mxGraphModel>
  </diagram>
</mxfile>
